<svg xmlns="http://www.w3.org/2000/svg" width="24" height="24" viewBox="0 0 24 24" fill="none">
    <ellipse cx="11.8519" cy="12" rx="2.96296" ry="3" fill="#FF5C00"/>
    <path d="M12.1198 2C12.7148 2 13.0123 2.00002 13.1605 2.19694C13.3087 2.39386 13.2298 2.68429 13.0721 3.26514L12.0568 7.00301C11.9997 7.00103 11.9424 7 11.8848 7C9.15751 7 6.94657 9.23858 6.94657 12C6.94657 13.8894 7.98161 15.5338 9.50886 16.3841L8.16313 21.3389C8.11884 21.502 8.09669 21.5836 8.06089 21.6506C7.97106 21.8187 7.81425 21.9397 7.63032 21.9828C7.55702 22 7.47347 22 7.30641 22C6.02242 22 5.38039 22 4.85528 21.8503C3.53098 21.4728 2.49601 20.4249 2.12315 19.0841C1.97531 18.5524 1.97534 17.9023 1.97534 16.6023V10C1.97534 6.22876 1.97532 4.34312 3.13243 3.17155C4.28954 1.99998 6.1519 2 9.87658 2H12.1198Z" fill="#8263FF"/>
</svg>